<svg aria-hidden="true" style="width:0;height:0;position:absolute;overflow:hidden" xmlns="http://www.w3.org/2000/svg"><defs><symbol id="icon-mobile-tablet-menu-icon" viewBox="0 0 46 32"><path fill="none" stroke="#d41443" stroke-width="2.286" style="stroke:var(--color1,#d41443)" d="M0 2.286h45.714M0 16h45.714M0 29.714h45.714"/></symbol><symbol id="icon-icecream-header-logo" viewBox="0 0 127 32"><path fill="#fff" style="fill:var(--color2,#fff)" d="M31.36 16.32C31.36 24.98 24.483 32 16 32S.64 24.98.64 16.32 7.517.64 16 .64s15.36 7.02 15.36 15.68z"/><path fill="#d41443" style="fill:var(--color1,#d41443)" d="M11.849.562C4.443 2.805 0 8.635 0 16.004c0 6.023 3.091 11.277 8.179 13.904 2.64 1.346 3.027.384.58-1.474-1.739-1.41-2.061-2.05-2.061-4.421 0-1.666-.386-3.011-.966-3.524-1.159-.961-1.288-3.46-.129-4.357.451-.384.902-1.666.966-2.819.322-4.229 4.894-8.201 9.467-8.201s9.145 3.973 9.466 8.201c.064 1.153.515 2.435.966 2.819 1.159.897 1.03 3.396-.129 4.357-.58.513-.966 1.858-.966 3.524 0 2.371-.322 3.011-2.061 4.421-2.705 2.114-1.932 2.883 1.095 1.025 4.25-2.627 7.406-8.33 7.406-13.391C31.813 5.944 21.252-2.257 11.85.562z"/><path fill="#d41443" style="fill:var(--color1,#d41443)" d="M12.686 7.994c-1.159.513-2.125 1.153-2.125 1.538 0 .705 3.477 1.986 5.474 1.986s5.474-1.281 5.474-1.986c0-.769-3.993-2.499-5.603-2.499-.644.064-2.125.449-3.22.961zM45.851 11.326c-.966.256-1.159 1.089-1.159 5.703v5.382h4.572l-.193-5.574c-.193-5.831-.451-6.279-3.22-5.51zM53.386 11.646c-2.125 1.153-2.898 2.563-2.898 5.318 0 3.78 2.061 5.574 5.86 5.318 2.576-.192 2.833-.384 3.027-1.986s.064-1.73-1.932-1.602c-2.061.192-2.125.064-2.125-2.05s.129-2.243 1.996-2.05c1.546.128 2.125-.128 2.383-1.089.129-.641 0-1.538-.386-1.922-.902-.897-4.25-.897-5.925.064zM61.049 11.71c-.193.513-.258 3.011-.129 5.638l.193 4.741h4.186c3.864 0 4.186-.128 4.379-1.474.193-1.217-.064-1.41-2.06-1.41-1.288 0-2.319-.32-2.319-.641 0-.384.902-.641 1.932-.641 1.481 0 1.932-.256 1.932-1.281s-.451-1.281-1.932-1.281c-1.03 0-1.932-.32-1.932-.641 0-.384.837-.641 1.868-.641 1.804 0 3.027-1.41 2.254-2.627-.58-.961-7.985-.705-8.372.256zM73.993 11.518c-2.125.833-2.962 2.307-3.027 4.998-.065 4.613 1.803 6.215 6.633 5.767 1.868-.128 2.189-.448 2.189-1.794 0-1.41-.257-1.602-2.061-1.41-1.546.128-2.125-.064-2.447-1.089-.58-1.986.644-3.588 2.705-3.588 1.224 0 1.868-.384 1.996-1.217.451-2.05-2.833-3.011-5.989-1.666zM81.914 11.262c-.323.256-.515 2.883-.515 5.831v5.382l2.06-.192c1.61-.128 2.19-.577 2.512-1.794l.386-1.602.515 1.73c.387 1.474.837 1.794 2.512 1.794 2.769 0 3.091-.448 1.932-2.691-.708-1.41-.837-2.114-.322-2.627.837-.833.902-3.652.129-4.87-.644-1.025-8.371-1.858-9.208-.961zm5.28 3.46c0 .705-.257 1.281-.644 1.281-.322 0-.644-.577-.644-1.281s.322-1.281.644-1.281c.387 0 .644.577.644 1.281zM93.441 11.326c-.258.192-.451 2.819-.451 5.767v5.318h4.186c4.057 0 4.186-.064 4.186-1.602 0-1.346-.322-1.602-1.932-1.602-1.03 0-1.932-.32-1.932-.641 0-.384.708-.641 1.61-.641 1.159 0 1.61-.32 1.61-1.281s-.451-1.281-1.61-1.281c-.902 0-1.61-.32-1.61-.641 0-.384.902-.641 1.932-.641 1.61 0 1.932-.256 1.932-1.602 0-1.538-.193-1.602-3.735-1.602-2.061 0-3.992.192-4.186.448zM106.45 11.262c-1.16.32-4.122 8.842-3.542 10.252.515 1.281 3.413 1.153 4.186-.192.579-1.089.644-1.089 1.803 0 1.482 1.281 4.701 1.474 4.701.256 0-.384-.644-2.947-1.482-5.574-1.288-4.229-1.674-4.806-3.027-4.934-.902 0-2.061.064-2.64.192zm1.803 5.831c-.193.641-.322.256-.322-.769 0-1.089.129-1.538.322-1.153.129.448.129 1.346 0 1.922zM115.723 11.326c-.58.192-.837 1.986-.837 5.703v5.382h1.868c1.61 0 1.932-.32 2.189-1.794.257-1.666.257-1.666.772-.32.258.833.902 1.474 1.352 1.474.515 0 1.224-.641 1.546-1.474.515-1.346.58-1.346.58.384.065 1.602.257 1.794 2.061 1.602l1.996-.192.065-5.318c.129-4.934.064-5.318-1.288-5.638-2.061-.513-3.799.705-4.379 3.076l-.451 2.114-.708-2.243c-.902-3.011-2.254-3.78-4.765-2.755zM9.016 11.967c-.193.256-.386 1.089-.386 1.922 0 1.474.064 1.474 7.406 1.474s7.406 0 7.406-1.474c0-2.178-.58-2.435-2.64-1.41-2.318 1.217-7.213 1.217-9.531 0-1.03-.513-1.996-.705-2.254-.513zM7.148 17.669c-1.03 1.089.708 1.538 5.731 1.538h5.409v2.243c0 1.217.322 2.243.644 2.243.386 0 .644-.961.644-2.178 0-2.114.129-2.243 2.576-2.435 1.417-.128 2.576-.513 2.576-.833 0-.705-16.872-1.281-17.581-.577z"/><path fill="#d41443" style="fill:var(--color1,#d41443)" d="M8.629 23.308c0 3.524 1.224 4.229 7.406 4.229s7.406-.705 7.406-4.229c0-1.538-.322-2.178-.966-2.178-.58 0-.966.577-.966 1.538 0 3.588-4.894 3.908-5.603.384-.322-1.858-.515-1.922-3.8-1.922H8.629v2.178zM12.622 30.548c.386 2.05 6.955 1.858 6.955-.128 0-.705-.837-.961-3.606-.961-3.027 0-3.542.192-3.349 1.089z"/></symbol><symbol id="icon-franchise" viewBox="0 0 22 32"><path fill="none" stroke="#d41443" style="stroke:var(--color1,#d41443)" stroke-linejoin="round" stroke-linecap="round" stroke-width="6.4" d="m4.545 3.2 13.7 12.8-13.7 12.8"/></symbol><symbol id="icon-locations" viewBox="0 0 19 32"><path fill="none" stroke="#fff" style="stroke:var(--color1,#fff)" stroke-linejoin="round" stroke-linecap="round" stroke-width="6.4" d="M3.2 3.2 14.753 16 3.2 28.8"/></symbol></defs><symbol id="icon-ice-cream-cone-header" viewBox="0 0 13 32"><path d="M0 0h13.346v32H0V0z"/></symbol><symbol id="cafe-number-header" viewBox="0 0 31 32"><path fill="#fff" style="fill:var(--color1,#fff)" d="M19.636 5.818a5.818 5.818 0 1 0 11.636 0 5.818 5.818 0 0 0-11.636 0z"/><path fill="#d41443" style="fill:var(--color2,#d41443)" d="M8.885 20.602c0 .149-.414.271-1.242.367-.828.081-1.656.122-2.484.122s-1.364-.034-1.609-.102c-.231-.081-.346-.21-.346-.387v-8.797H1.127c-.231 0-.346-.495-.346-1.487s.115-1.887.346-2.688c.068-.258.787-.495 2.159-.713s2.423-.326 3.156-.326c.733 0 1.222.027 1.466.081s.428.122.55.204a.852.852 0 0 1 .285.244.802.802 0 0 1 .143.428v13.053zm7.924-8.41c.122-.109.448-.251.977-.428s1.127-.265 1.792-.265c.679 0 1.249.102 1.711.305.475.19.842.434 1.1.733.272.299.482.672.631 1.12.244.733.367 1.48.367 2.24s-.034 1.337-.102 1.731c-.054.38-.204.808-.448 1.283-.231.475-.55.876-.957 1.201-.394.326-.964.604-1.711.835-.733.217-1.595.326-2.586.326-2.131 0-3.74-.584-4.826-1.751-1.086-1.181-1.629-3.082-1.629-5.702 0-2.634.509-4.527 1.527-5.681 1.018-1.168 2.566-1.751 4.643-1.751 1.425 0 2.661.109 3.706.326 1.059.204 1.588.448 1.588.733 0 .353-.136.971-.407 1.853-.258.882-.495 1.324-.713 1.324-.068 0-.271-.034-.611-.102-.923-.19-1.765-.285-2.525-.285s-1.249.19-1.466.57c-.217.367-.326.91-.326 1.629.054-.068.143-.149.265-.244zm.448 1.833c-.394 0-.591.733-.591 2.199 0 1.453.197 2.179.591 2.179.421 0 .631-.726.631-2.179 0-1.466-.21-2.199-.631-2.199z"/><path fill="#fff" style="fill:var(--color1,#fff)" d="M11.217 30.615c-.275 0-.524-.062-.745-.186a1.422 1.422 0 0 1-.518-.529c-.124-.229-.186-.495-.186-.797s.062-.566.186-.791c.128-.229.301-.405.518-.529.221-.128.469-.192.745-.192.341 0 .628.089.861.268.237.178.386.417.448.716h-.5a.633.633 0 0 0-.285-.413.93.93 0 0 0-.529-.151.904.904 0 0 0-.809.489c-.089.163-.134.365-.134.605s.045.442.134.605a.952.952 0 0 0 .349.372.92.92 0 0 0 .46.122.964.964 0 0 0 .529-.145.655.655 0 0 0 .285-.425h.5c-.058.291-.206.527-.442.71s-.526.273-.867.273zm2.951 0c-.241 0-.44-.041-.599-.122a.83.83 0 0 1-.471-.768c0-.295.112-.522.337-.681s.531-.239.919-.239h.78v-.035c0-.252-.066-.442-.198-.57-.132-.132-.308-.198-.529-.198a.854.854 0 0 0-.495.145.617.617 0 0 0-.256.413h-.5a.934.934 0 0 1 .209-.529c.124-.143.277-.252.46-.326.182-.078.376-.116.582-.116.403 0 .706.109.908.326.206.213.308.498.308.855v1.775h-.436l-.029-.518a1.152 1.152 0 0 1-.361.419c-.155.113-.365.169-.628.169zm.076-.413a.79.79 0 0 0 .477-.145c.136-.097.239-.223.308-.378s.105-.318.105-.489v-.006h-.739c-.287 0-.491.05-.611.151a.459.459 0 0 0-.175.367.46.46 0 0 0 .163.367c.112.089.27.134.471.134zm2.269.343v-2.473h-.436v-.413h.436v-.5c0-.279.07-.483.209-.611s.343-.192.611-.192h.291v.419h-.215c-.147 0-.252.031-.314.093-.062.058-.093.159-.093.303v.489h.71v.413h-.71v2.473h-.489zm2.964.07c-.275 0-.52-.062-.733-.186a1.391 1.391 0 0 1-.506-.529 1.671 1.671 0 0 1-.18-.797c0-.303.06-.566.18-.791a1.29 1.29 0 0 1 .5-.529 1.45 1.45 0 0 1 .751-.192c.279 0 .52.064.721.192.206.124.363.289.471.495a1.408 1.408 0 0 1 .157.791v.145H18.54c.012.221.062.405.151.553a.952.952 0 0 0 .343.326c.14.074.287.111.442.111.202 0 .37-.047.506-.14s.235-.219.297-.378h.483a1.311 1.311 0 0 1-.448.669c-.217.175-.497.262-.838.262zm0-2.612a.984.984 0 0 0-.623.215c-.178.14-.281.345-.308.617h1.815c-.012-.26-.101-.463-.268-.611s-.372-.221-.617-.221zm3.121 2.612c-.345 0-.632-.087-.861-.262s-.363-.411-.401-.71h.5a.713.713 0 0 0 .239.396c.132.109.308.163.529.163.206 0 .357-.043.454-.128a.413.413 0 0 0 .145-.314c0-.175-.064-.291-.192-.349a2.436 2.436 0 0 0-.529-.157c-.155-.031-.31-.076-.465-.134s-.285-.14-.39-.244a.586.586 0 0 1-.157-.425c0-.252.093-.458.279-.617.19-.163.446-.244.768-.244.306 0 .557.078.751.233.198.151.312.369.343.652h-.483a.485.485 0 0 0-.192-.343.655.655 0 0 0-.425-.128c-.175 0-.31.037-.407.111a.354.354 0 0 0-.14.291c0 .116.06.207.18.273.124.066.291.122.5.169.178.039.347.087.506.145a.904.904 0 0 1 .396.25c.105.109.157.268.157.477a.793.793 0 0 1-.297.646c-.198.167-.467.25-.809.25z"/></symbol><symbol id="food-truck-number-header" viewBox="0 0 38 32"><path fill="#fff" style="fill:var(--color1,#fff)" d="M26.047 5.954A5.954 5.954 0 1 0 32 0a5.953 5.953 0 0 0-5.953 5.954z"/><path fill="#d41443" style="fill:var(--color2,#d41443)" d="M7.732 11.44c-.389 0-.729-.458-1.021-1.375a9.11 9.11 0 0 1-.417-2.646c0-.194.215-.41.646-.646.431-.25 1.084-.472 1.959-.667s1.827-.292 2.855-.292c3.987 0 5.98 1.396 5.98 4.188 0 .778-.167 1.507-.5 2.188s-.702 1.229-1.104 1.646a8.392 8.392 0 0 1-1.417 1.125c-.625.389-1.222.695-1.792.917h4.167c.083 0 .174.042.271.125.097.069.201.292.313.667.111.361.167.82.167 1.375 0 .542-.035 1-.104 1.375-.07.361-.153.625-.25.792-.208.375-.396.577-.563.604l-.104.021H7.691c-.875 0-1.313-1.368-1.313-4.105 0-.306.903-1.146 2.709-2.521.681-.5 1.306-1.049 1.875-1.646s.854-1.084.854-1.459c0-.417-.313-.625-.938-.625s-1.285.16-1.98.479c-.681.319-1.07.479-1.167.479zM31.18 9.71c0 1.403-.556 2.452-1.667 3.146.153.069.347.236.583.5.25.264.458.528.625.792.431.681.646 1.486.646 2.417 0 1.528-.549 2.653-1.646 3.376s-2.605 1.084-4.522 1.084c-.945 0-1.841-.076-2.688-.229-.834-.167-1.473-.347-1.917-.542-.445-.208-.667-.396-.667-.563 0-.764.083-1.438.25-2.021s.354-.993.563-1.229c.208-.25.41-.375.604-.375.056 0 .424.125 1.104.375s1.348.375 2 .375c.667 0 1-.208 1-.625 0-.57-.702-.875-2.105-.917-.556-.014-.861-.028-.917-.042-.292-.097-.438-.708-.438-1.834s.146-1.743.438-1.854c.056-.028.361-.042.917-.042 1.403-.028 2.105-.313 2.105-.854 0-.417-.306-.625-.917-.625-.597 0-1.264.146-2 .438s-1.139.438-1.209.438c-.319 0-.611-.465-.875-1.396s-.396-1.591-.396-1.98c0-.361.403-.729 1.209-1.104.889-.403 2.195-.604 3.917-.604 4.001 0 6.001 1.299 6.001 3.897z"/><path fill="#fff" style="fill:var(--color1,#fff)" d="M1.275 30.512v-2.53H.828v-.423h.447v-.512c0-.286.071-.494.214-.625s.351-.196.625-.196h.298v.429h-.22c-.151 0-.258.032-.321.095-.063.06-.095.163-.095.31v.5h.726v.423h-.726v2.53h-.5zm3.051.071c-.278 0-.528-.063-.75-.191s-.399-.306-.53-.536c-.127-.234-.191-.508-.191-.822s.066-.585.196-.816c.131-.234.308-.415.53-.542.226-.127.478-.191.756-.191s.528.063.75.191c.222.127.397.308.524.542.131.23.196.502.196.816s-.066.587-.196.822c-.131.23-.31.409-.536.536a1.483 1.483 0 0 1-.75.191zm0-.429a.925.925 0 0 0 .833-.5c.091-.167.137-.373.137-.619s-.046-.452-.137-.619c-.087-.167-.204-.292-.351-.375s-.304-.125-.47-.125a.925.925 0 0 0-.833.5c-.091.167-.137.373-.137.619s.046.452.137.619a.939.939 0 0 0 .351.375.942.942 0 0 0 .47.125zm3.523.429c-.278 0-.528-.063-.75-.191s-.399-.306-.53-.536c-.127-.234-.191-.508-.191-.822s.066-.585.196-.816c.131-.234.308-.415.53-.542.226-.127.478-.191.756-.191s.528.063.75.191c.222.127.397.308.524.542.131.23.196.502.196.816s-.066.587-.196.822c-.131.23-.31.409-.536.536a1.483 1.483 0 0 1-.75.191zm0-.429a.925.925 0 0 0 .833-.5c.091-.167.137-.373.137-.619s-.046-.452-.137-.619c-.087-.167-.204-.292-.351-.375s-.304-.125-.47-.125a.925.925 0 0 0-.833.5c-.091.167-.137.373-.137.619s.046.452.137.619a.939.939 0 0 0 .351.375.942.942 0 0 0 .47.125zm3.518.429a1.46 1.46 0 0 1-.774-.202 1.404 1.404 0 0 1-.512-.554c-.119-.234-.179-.5-.179-.798s.061-.562.185-.792c.123-.234.294-.417.512-.548a1.44 1.44 0 0 1 .774-.202c.242 0 .456.05.643.149s.331.238.435.417v-1.828h.5v4.287h-.452l-.048-.488c-.095.143-.232.272-.411.387s-.403.173-.673.173zm.053-.435a.996.996 0 0 0 .524-.137.943.943 0 0 0 .357-.393c.087-.167.131-.361.131-.583s-.044-.417-.131-.583a.904.904 0 0 0-.357-.387.962.962 0 0 0-.524-.143.981.981 0 0 0-.524.143.956.956 0 0 0-.357.387c-.083.167-.125.361-.125.583s.042.417.125.583a.999.999 0 0 0 .357.393c.155.091.329.137.524.137zm5.088.364c-.27 0-.482-.066-.637-.196s-.232-.367-.232-.708v-1.625h-.512v-.423h.512l.066-.708h.435v.708h.869v.423h-.869v1.625c0 .187.038.314.113.381.075.063.208.095.399.095h.31v.429h-.452zm1.135 0v-2.953h.452l.042.566c.091-.194.23-.349.417-.464s.417-.173.691-.173v.524h-.137c-.175 0-.335.032-.482.095-.147.06-.264.163-.351.31s-.131.349-.131.607v1.488h-.5zm4.747-2.953v2.953h-.452l-.03-.53c-.095.187-.232.333-.411.441s-.381.161-.607.161c-.349 0-.629-.105-.839-.316-.206-.214-.31-.542-.31-.982v-1.727h.5v1.673c0 .615.254.923.762.923a.817.817 0 0 0 .631-.274c.171-.187.256-.45.256-.792v-1.53h.5zm2.18 3.024c-.282 0-.536-.063-.762-.191a1.452 1.452 0 0 1-.53-.542c-.127-.234-.191-.506-.191-.816s.064-.579.191-.81c.131-.234.308-.415.53-.542.226-.131.48-.196.762-.196.349 0 .643.091.881.274.242.183.395.427.458.732h-.512a.648.648 0 0 0-.292-.423.955.955 0 0 0-.542-.155.925.925 0 0 0-.827.5c-.091.167-.137.373-.137.619s.046.452.137.619c.091.167.21.294.357.381a.942.942 0 0 0 .47.125c.206 0 .387-.05.542-.149a.67.67 0 0 0 .292-.435h.512c-.06.298-.21.54-.452.726s-.538.28-.887.28zm2.038-.071v-4.287h.5v2.578l1.209-1.244h.613l-1.31 1.334 1.476 1.619h-.637l-1.351-1.53v1.53h-.5zm3.957.071c-.353 0-.647-.089-.881-.268s-.371-.421-.411-.726h.512c.032.155.113.29.244.405.135.111.316.167.542.167.21 0 .365-.044.464-.131a.424.424 0 0 0 .149-.322c0-.179-.066-.298-.196-.357a2.503 2.503 0 0 0-.542-.161c-.159-.032-.318-.077-.476-.137s-.292-.143-.399-.25a.6.6 0 0 1-.161-.435.79.79 0 0 1 .286-.631c.194-.167.456-.25.786-.25.314 0 .57.079.768.238.202.155.319.377.351.667h-.494a.5.5 0 0 0-.196-.351.67.67 0 0 0-.435-.131c-.179 0-.318.038-.417.113a.362.362 0 0 0-.143.298c0 .119.062.212.185.28.127.067.298.125.512.173.183.04.355.089.518.149a.925.925 0 0 1 .405.256c.107.111.161.274.161.488a.811.811 0 0 1-.304.661c-.202.171-.478.256-.828.256z"/></symbol></svg>